<mxfile host="Electron" modified="2023-05-31T15:22:52.861Z" agent="Mozilla/5.0 (Windows NT 10.0; Win64; x64) AppleWebKit/537.36 (KHTML, like Gecko) draw.io/21.2.8 Chrome/112.0.5615.165 Electron/24.2.0 Safari/537.36" etag="c2k8c14YXHHgW5lUDJ8H" version="21.2.8" type="device">
  <diagram name="Seite-1" id="3QuzrFtcdT5GmKSGnVmT">
    <mxGraphModel dx="1020" dy="496" grid="1" gridSize="10" guides="1" tooltips="1" connect="1" arrows="1" fold="1" page="1" pageScale="1" pageWidth="827" pageHeight="1169" math="0" shadow="0">
      <root>
        <mxCell id="0" />
        <mxCell id="1" parent="0" />
        <mxCell id="1VDN-tU9qrtm_KLTs-uc-2" value="&lt;h1&gt;Java (Klassen)&lt;/h1&gt;" style="text;html=1;strokeColor=none;fillColor=none;spacing=5;spacingTop=-20;whiteSpace=wrap;overflow=hidden;rounded=0;" vertex="1" parent="1">
          <mxGeometry x="50" y="40" width="190" height="40" as="geometry" />
        </mxCell>
        <mxCell id="1VDN-tU9qrtm_KLTs-uc-3" value="&lt;h1&gt;JNI&lt;/h1&gt;" style="text;html=1;strokeColor=none;fillColor=none;spacing=5;spacingTop=-20;whiteSpace=wrap;overflow=hidden;rounded=0;" vertex="1" parent="1">
          <mxGeometry x="359" y="40" width="51" height="40" as="geometry" />
        </mxCell>
        <mxCell id="1VDN-tU9qrtm_KLTs-uc-4" value="&lt;h1&gt;C/C++ (Klassen)&lt;/h1&gt;" style="text;html=1;strokeColor=none;fillColor=none;spacing=5;spacingTop=-20;whiteSpace=wrap;overflow=hidden;rounded=0;" vertex="1" parent="1">
          <mxGeometry x="560" y="40" width="210" height="40" as="geometry" />
        </mxCell>
        <mxCell id="1VDN-tU9qrtm_KLTs-uc-9" style="edgeStyle=orthogonalEdgeStyle;rounded=0;orthogonalLoop=1;jettySize=auto;html=1;exitX=0;exitY=0.5;exitDx=0;exitDy=0;entryX=1;entryY=0.5;entryDx=0;entryDy=0;" edge="1" parent="1" source="1VDN-tU9qrtm_KLTs-uc-16" target="1VDN-tU9qrtm_KLTs-uc-6">
          <mxGeometry relative="1" as="geometry">
            <mxPoint x="260" y="180" as="targetPoint" />
          </mxGeometry>
        </mxCell>
        <mxCell id="1VDN-tU9qrtm_KLTs-uc-5" value="&lt;span class=&quot;module__title__link&quot;&gt;GLFW&lt;/span&gt;" style="text;whiteSpace=wrap;html=1;" vertex="1" parent="1">
          <mxGeometry x="610" y="120" width="40" height="30" as="geometry" />
        </mxCell>
        <mxCell id="1VDN-tU9qrtm_KLTs-uc-6" value="&lt;span class=&quot;module__title__link&quot;&gt;JavaFX&lt;/span&gt;" style="text;whiteSpace=wrap;html=1;" vertex="1" parent="1">
          <mxGeometry x="80" y="120" width="50" height="30" as="geometry" />
        </mxCell>
        <mxCell id="1VDN-tU9qrtm_KLTs-uc-10" style="edgeStyle=orthogonalEdgeStyle;rounded=0;orthogonalLoop=1;jettySize=auto;html=1;exitX=0.5;exitY=0;exitDx=0;exitDy=0;entryX=0.5;entryY=1;entryDx=0;entryDy=0;" edge="1" parent="1" source="1VDN-tU9qrtm_KLTs-uc-18" target="1VDN-tU9qrtm_KLTs-uc-5">
          <mxGeometry relative="1" as="geometry" />
        </mxCell>
        <mxCell id="1VDN-tU9qrtm_KLTs-uc-7" value="&lt;span class=&quot;module__title__link&quot;&gt;Vulkan Api&lt;/span&gt;" style="text;whiteSpace=wrap;html=1;" vertex="1" parent="1">
          <mxGeometry x="600" y="290" width="60" height="30" as="geometry" />
        </mxCell>
        <mxCell id="1VDN-tU9qrtm_KLTs-uc-12" value="" style="endArrow=none;dashed=1;html=1;dashPattern=1 3;strokeWidth=2;rounded=0;" edge="1" parent="1">
          <mxGeometry width="50" height="50" relative="1" as="geometry">
            <mxPoint x="380" y="350" as="sourcePoint" />
            <mxPoint x="380" y="90" as="targetPoint" />
          </mxGeometry>
        </mxCell>
        <mxCell id="1VDN-tU9qrtm_KLTs-uc-15" value="" style="edgeStyle=orthogonalEdgeStyle;rounded=0;orthogonalLoop=1;jettySize=auto;html=1;exitX=0;exitY=0.5;exitDx=0;exitDy=0;entryX=1;entryY=0.5;entryDx=0;entryDy=0;" edge="1" parent="1" source="1VDN-tU9qrtm_KLTs-uc-5" target="1VDN-tU9qrtm_KLTs-uc-16">
          <mxGeometry relative="1" as="geometry">
            <mxPoint x="130" y="135" as="targetPoint" />
            <mxPoint x="610" y="135" as="sourcePoint" />
          </mxGeometry>
        </mxCell>
        <mxCell id="1VDN-tU9qrtm_KLTs-uc-16" value="Fenster wird in Javafx.scene.Scene geladen" style="text;html=1;strokeColor=none;fillColor=none;align=center;verticalAlign=middle;whiteSpace=wrap;rounded=0;" vertex="1" parent="1">
          <mxGeometry x="180" y="120" width="140" height="30" as="geometry" />
        </mxCell>
        <mxCell id="1VDN-tU9qrtm_KLTs-uc-17" value="" style="edgeStyle=orthogonalEdgeStyle;rounded=0;orthogonalLoop=1;jettySize=auto;html=1;exitX=0.5;exitY=0;exitDx=0;exitDy=0;entryX=0.5;entryY=1;entryDx=0;entryDy=0;" edge="1" parent="1" source="1VDN-tU9qrtm_KLTs-uc-7" target="1VDN-tU9qrtm_KLTs-uc-18">
          <mxGeometry relative="1" as="geometry">
            <mxPoint x="630" y="240" as="sourcePoint" />
            <mxPoint x="630" y="150" as="targetPoint" />
          </mxGeometry>
        </mxCell>
        <mxCell id="1VDN-tU9qrtm_KLTs-uc-18" value="Vulkan schreibt in GLFW context" style="text;html=1;strokeColor=none;fillColor=none;align=center;verticalAlign=middle;whiteSpace=wrap;rounded=0;" vertex="1" parent="1">
          <mxGeometry x="530" y="200" width="200" height="30" as="geometry" />
        </mxCell>
        <mxCell id="1VDN-tU9qrtm_KLTs-uc-38" style="edgeStyle=orthogonalEdgeStyle;rounded=0;orthogonalLoop=1;jettySize=auto;html=1;exitX=0.5;exitY=1;exitDx=0;exitDy=0;entryX=0.5;entryY=0;entryDx=0;entryDy=0;" edge="1" parent="1" source="1VDN-tU9qrtm_KLTs-uc-28" target="1VDN-tU9qrtm_KLTs-uc-33">
          <mxGeometry relative="1" as="geometry" />
        </mxCell>
        <mxCell id="1VDN-tU9qrtm_KLTs-uc-28" value="VulkanWindow" style="html=1;whiteSpace=wrap;" vertex="1" parent="1">
          <mxGeometry x="110" y="440" width="110" height="50" as="geometry" />
        </mxCell>
        <mxCell id="1VDN-tU9qrtm_KLTs-uc-29" value="Window" style="html=1;whiteSpace=wrap;" vertex="1" parent="1">
          <mxGeometry x="560" y="440" width="110" height="50" as="geometry" />
        </mxCell>
        <mxCell id="1VDN-tU9qrtm_KLTs-uc-35" style="edgeStyle=orthogonalEdgeStyle;rounded=0;orthogonalLoop=1;jettySize=auto;html=1;exitX=0.5;exitY=0;exitDx=0;exitDy=0;entryX=0.5;entryY=1;entryDx=0;entryDy=0;" edge="1" parent="1" source="1VDN-tU9qrtm_KLTs-uc-32" target="1VDN-tU9qrtm_KLTs-uc-29">
          <mxGeometry relative="1" as="geometry" />
        </mxCell>
        <mxCell id="1VDN-tU9qrtm_KLTs-uc-32" value="VulkanInstance" style="html=1;whiteSpace=wrap;" vertex="1" parent="1">
          <mxGeometry x="560" y="535" width="110" height="50" as="geometry" />
        </mxCell>
        <mxCell id="1VDN-tU9qrtm_KLTs-uc-34" style="edgeStyle=orthogonalEdgeStyle;rounded=0;orthogonalLoop=1;jettySize=auto;html=1;exitX=1;exitY=0.5;exitDx=0;exitDy=0;entryX=0;entryY=0.5;entryDx=0;entryDy=0;" edge="1" parent="1" source="1VDN-tU9qrtm_KLTs-uc-33" target="1VDN-tU9qrtm_KLTs-uc-32">
          <mxGeometry relative="1" as="geometry">
            <mxPoint x="430" y="560" as="targetPoint" />
          </mxGeometry>
        </mxCell>
        <mxCell id="1VDN-tU9qrtm_KLTs-uc-33" value="FBXLoader" style="html=1;whiteSpace=wrap;" vertex="1" parent="1">
          <mxGeometry x="110" y="535" width="110" height="50" as="geometry" />
        </mxCell>
        <mxCell id="1VDN-tU9qrtm_KLTs-uc-36" value="" style="endArrow=block;startArrow=block;endFill=1;startFill=1;html=1;rounded=0;entryX=0;entryY=0.5;entryDx=0;entryDy=0;exitX=1;exitY=0.5;exitDx=0;exitDy=0;" edge="1" parent="1" source="1VDN-tU9qrtm_KLTs-uc-28" target="1VDN-tU9qrtm_KLTs-uc-29">
          <mxGeometry width="160" relative="1" as="geometry">
            <mxPoint x="310" y="460" as="sourcePoint" />
            <mxPoint x="470" y="460" as="targetPoint" />
          </mxGeometry>
        </mxCell>
      </root>
    </mxGraphModel>
  </diagram>
</mxfile>
